<svg width="180" height="32" viewBox="0 0 180 32" fill="none" xmlns="http://www.w3.org/2000/svg">
<path d="M0.78125 0H13.5375C15.9672 0 17.7895 0.606286 19.1394 1.61676C20.6242 2.82933 21.4342 4.58082 21.4342 6.7365C21.4342 9.22901 20.4218 10.7784 18.397 11.7215V11.8562C21.0967 12.732 22.649 15.1571 22.649 18.0538C22.649 20.8158 21.5691 22.9715 19.8143 24.3188C18.3295 25.3966 16.4397 25.8682 13.8749 25.8682H0.78125V0ZM12.2551 10.1048C13.6049 10.1048 14.6173 9.36374 14.6173 7.81434C14.6173 6.33231 13.6049 5.5913 12.1876 5.5913H7.80054V10.0374H12.2551V10.1048ZM12.8625 20.1421C14.4149 20.1421 15.5622 19.199 15.5622 17.5149C15.5622 15.696 14.3474 14.8877 12.8625 14.8877H7.86803V20.2095H12.8625V20.1421Z" fill="#444444"/>
<path d="M23.7969 0H30.4787V25.9355H23.7969V0Z" fill="#444444"/>
<path d="M31.8281 16.7065C31.8281 10.8458 35.6077 6.9386 41.4797 6.9386C47.3516 6.9386 51.0637 10.9131 51.0637 16.7065C51.0637 22.5673 47.3516 26.4745 41.4797 26.4745C35.6077 26.4745 31.8281 22.5673 31.8281 16.7065ZM44.3819 16.7065C44.3819 13.473 43.3695 11.4521 41.3447 11.4521C39.3199 11.4521 38.375 13.473 38.375 16.7065C38.375 19.94 39.3199 22.0284 41.3447 22.0284C43.3695 21.961 44.3819 19.94 44.3819 16.7065Z" fill="#444444"/>
<path d="M51.8057 16.7065C51.8057 10.8458 55.5853 6.9386 61.4572 6.9386C67.3291 6.9386 70.9737 10.8458 70.9737 16.7065C70.9737 22.5673 67.2616 26.4745 61.3897 26.4745C55.5853 26.4745 51.8057 22.5673 51.8057 16.7065ZM64.3594 16.7065C64.3594 13.473 63.347 11.4521 61.3222 11.4521C59.2974 11.4521 58.3525 13.473 58.3525 16.7065C58.3525 19.94 59.2974 22.0284 61.3222 22.0284C63.347 21.961 64.3594 19.94 64.3594 16.7065Z" fill="#444444"/>
<path d="M75.2109 7.41014H81.4203V10.1721H81.5553C82.7702 8.01642 84.4575 6.87122 87.1572 6.87122C89.5195 6.87122 91.2743 8.01642 92.1517 10.0374H92.2867C93.7716 7.61223 95.7289 6.87122 98.0236 6.87122C102.343 6.87122 104.165 10.0374 104.165 14.2814V25.8681H97.6862V15.4266C97.6862 13.5404 97.0787 12.3278 95.4589 12.3278C93.839 12.3278 93.0291 13.8098 93.0291 15.8308V25.8681H86.5498V15.4266C86.5498 13.5404 85.9423 12.3278 84.3225 12.3278C82.7027 12.3278 81.8928 13.8098 81.8928 15.8308V25.8681H75.2109V7.41014Z" fill="#444444"/>
<path d="M112.332 23.443H112.264V25.8682H106.055V0H112.534V9.29637H112.669C113.884 7.67961 115.571 6.80387 117.933 6.80387C122.591 6.80387 125.29 10.9805 125.29 16.5718C125.29 22.8367 122.388 26.4745 117.529 26.4745C115.504 26.4745 113.411 25.5313 112.332 23.443ZM118.608 16.5044C118.608 13.5404 117.529 11.5868 115.571 11.5868C113.546 11.5868 112.332 13.5404 112.332 16.5044C112.332 19.4685 113.614 21.4221 115.571 21.4221C117.529 21.4221 118.608 19.5359 118.608 16.5044Z" fill="#444444"/>
<path d="M126.033 16.6391C126.033 10.8458 129.88 6.87122 135.415 6.87122C138.182 6.87122 140.274 7.74696 141.894 9.29636C144.054 11.3847 144.999 14.6182 144.931 18.3906H132.513C132.783 20.681 133.862 21.8936 135.82 21.8936C136.967 21.8936 137.979 21.3547 138.384 20.1421H144.661C143.581 24.3861 140.274 26.4744 135.617 26.4744C129.88 26.4071 126.033 22.4999 126.033 16.6391ZM132.513 14.6856H138.452C138.317 12.4625 137.102 11.3173 135.55 11.3173C133.727 11.2499 132.715 12.5299 132.513 14.6856Z" fill="#444444"/>
<path d="M152.287 10.5763H152.422C153.772 8.01646 155.527 7.00598 157.754 7.00598C158.294 7.00598 158.632 7.07335 158.834 7.20808V12.8667H158.699C154.852 12.1931 152.625 14.0119 152.625 18.1886V25.9356H146.078V7.41017H152.287V10.5763Z" fill="#444444"/>
<path d="M161.434 25.9355H167.711C167.981 26.7439 168.791 27.4849 170.343 27.4849C172.436 27.4849 173.178 26.205 173.178 24.2514V22.9041H173.043C172.031 24.1166 170.613 24.9924 168.588 24.9924C164.606 24.9924 161.097 22.0283 161.097 16.2349C161.097 10.9131 163.931 6.80383 168.251 6.80383C170.748 6.80383 172.233 7.81431 173.245 9.3637H173.38V7.34275H179.59V23.3756C179.59 26.3397 178.577 28.6301 177.025 29.9774C175.405 31.3921 173.11 31.9984 170.478 31.9984C165.484 32.0657 162.042 30.0448 161.434 25.9355ZM173.448 15.9655C173.448 13.6751 172.368 11.7888 170.478 11.7888C168.656 11.7888 167.509 13.4056 167.509 15.9655C167.509 18.458 168.656 20.2095 170.478 20.2095C172.301 20.2095 173.448 18.3906 173.448 15.9655Z" fill="#444444"/>
</svg>
