<svg width="124" height="32" viewBox="0 0 124 32" fill="none" xmlns="http://www.w3.org/2000/svg">
<path d="M31.0448 31.9103C28.9122 31.6025 27.0353 30.6969 25.6077 29.29C24.418 28.1117 23.6426 26.8191 23.0786 25.0429C22.1886 22.273 22.1886 18.7118 23.0786 16.0035C23.9422 13.3744 25.872 11.0882 28.2513 9.9011C31.5383 8.25678 36.1558 8.3623 39.196 10.1473C41.9366 11.7564 43.5933 14.6142 44.0515 18.5096C44.1925 19.7054 44.1044 22.2203 43.8753 23.2579C42.9676 27.5137 40.324 30.477 36.4466 31.6025C36.0325 31.7257 35.3804 31.8663 35.0102 31.9191C34.226 32.0246 31.8114 32.0246 31.0448 31.9103ZM34.2436 30.2044C34.8693 30.0198 35.6359 29.2987 36.0501 28.5162C36.896 26.8982 37.275 24.5065 37.2838 20.7079C37.2926 15.9508 36.5436 12.9171 34.9662 11.3344C34.3053 10.6661 33.8294 10.4639 32.9835 10.4639C31.1065 10.4639 29.908 12.4247 29.441 16.2849C29.2207 18.0611 29.2207 22.2818 29.441 23.8294C30.1107 28.6305 31.8291 30.9167 34.2436 30.2044ZM68.893 31.9103C68.0205 31.8224 65.3505 31.3739 64.4164 31.1629L63.7731 31.0134L63.826 27.5753C63.9493 19.2922 63.9581 14.7725 63.8877 10.3759C63.8083 6.06729 63.7907 5.61005 63.6233 4.97695C63.4118 4.16798 63.1122 3.60522 62.7421 3.35022C62.6011 3.25349 62.2133 3.10401 61.8873 3.03366C60.7858 2.78746 60.8475 2.83142 60.821 2.33021C60.8034 2.04004 60.8386 1.85538 60.9091 1.79383C60.9885 1.7059 69.9857 -0.00875943 70.2765 3.3703e-05C70.3558 3.3703e-05 70.3734 1.15193 70.3293 5.10005C70.3029 7.90506 70.2941 10.2001 70.3205 10.2001C70.347 10.2001 70.673 10.0594 71.0519 9.88351C72.1887 9.35593 73.2373 9.1361 74.753 9.08334C75.7664 9.04817 76.2335 9.07454 76.7534 9.18006C80.1461 9.88351 82.6575 12.6533 83.5387 16.6718C83.7679 17.7182 83.856 20.321 83.6974 21.6223C83.5652 22.7303 83.1951 24.2339 82.8161 25.2011C81.3621 28.8679 78.2515 31.2596 74.1186 31.8839C73.1668 32.0246 70.1707 32.0422 68.893 31.9103ZM72.4266 30.1605C73.0699 30.0374 73.5634 29.7824 74.1009 29.3075C75.4404 28.1029 76.445 25.632 76.8415 22.5544C77.0001 21.3058 76.9825 18.4568 76.8063 17.4104C76.3216 14.5878 75.2818 12.7325 73.7661 11.9851C73.1404 11.6773 73.0435 11.6509 72.2944 11.6509C71.7657 11.6509 71.2987 11.7037 70.9109 11.8268L70.3293 12.0027L70.2853 15.2122C70.2324 19.3273 70.3646 29.6329 70.4791 29.9319C70.5496 30.1165 70.629 30.1605 70.9902 30.1869C71.8186 30.2484 71.9596 30.2484 72.4266 30.1605ZM94.2279 31.8663C89.8571 31.0838 86.7287 27.9886 85.7065 23.4337C85.5744 22.8446 85.5127 22.1939 85.4862 20.9277C85.4334 18.9229 85.6008 17.683 86.1119 16.1354C87.1077 13.1634 88.8877 11.0618 91.4785 9.80437C94.2103 8.47661 97.9554 8.38868 100.37 9.59334C103.093 10.9563 104.697 13.6734 105.102 17.6303C105.155 18.1666 105.19 18.7997 105.173 19.0372L105.146 19.4768L98.6251 19.5032L92.1041 19.5296L92.1306 20.2946C92.1923 22.0796 92.5712 23.6536 93.285 25.0165C93.611 25.6408 93.8666 25.9749 94.4922 26.6081C95.9022 28.0237 97.3033 28.5777 99.5152 28.5777C101.119 28.5777 102.273 28.2612 103.481 27.4786C103.815 27.2587 104.159 27.0829 104.238 27.0829C104.424 27.0829 104.847 27.6281 104.847 27.8655C104.847 28.2524 103.586 29.501 102.353 30.3363C101.339 31.0134 99.7443 31.6377 98.352 31.8751C97.3738 32.0422 95.1884 32.0422 94.2279 31.8663ZM96.9949 17.5335L98.5282 17.4808L98.4753 16.3904C98.2815 12.5566 97.3386 10.4639 95.8141 10.4639C94.1574 10.4639 92.8356 12.5918 92.2804 16.1354C92.2099 16.5663 92.157 17.0851 92.157 17.2785V17.6303L93.8137 17.6039C94.7125 17.5951 96.1489 17.5599 96.9949 17.5335ZM111.852 31.9543C110.284 31.7872 107.781 31.242 106.953 30.8815L106.547 30.7057L106.494 28.7008C106.468 27.5929 106.433 26.1156 106.415 25.421L106.389 24.146L106.635 24.0317C106.768 23.9701 107.041 23.9086 107.235 23.8998L107.596 23.8822L107.904 24.6296C109.094 27.5489 110.486 29.1141 112.302 29.5977C112.998 29.7824 114.293 29.7824 114.813 29.5977C116.249 29.0877 117.043 28.0062 117.051 26.5201C117.06 24.7615 116.091 23.9174 112.434 22.4929C110.169 21.6048 109.376 21.1563 108.433 20.1891C107.42 19.1515 106.926 17.9732 106.838 16.3289C106.724 14.3416 107.349 12.6621 108.733 11.2377C110.125 9.80438 111.931 9.02179 114.39 8.80196C116.558 8.60851 119.88 9.06575 121.616 9.79558L121.933 9.92748L121.986 11.7213C122.021 12.7061 122.048 14.0251 122.057 14.6582L122.074 15.8013L121.651 15.9596C120.973 16.2058 120.929 16.1794 120.559 15.1858C119.51 12.4071 118.285 11.0882 116.382 10.6837C115.218 10.4375 114.249 10.7013 113.544 11.4575C112.998 12.0466 112.777 12.5654 112.725 13.4359C112.672 14.3856 112.839 14.8956 113.421 15.5287C114.135 16.3113 115.307 16.9796 117.642 17.9556C120.497 19.1515 121.863 20.1627 122.603 21.6399C123.088 22.5984 123.22 23.3634 123.176 24.8406C123.141 25.9486 123.105 26.1772 122.85 26.9158C122.03 29.3427 120.171 30.9343 117.298 31.6905C116.329 31.9455 116.188 31.9543 114.249 31.9807C113.112 31.9807 112.046 31.9719 111.852 31.9543ZM0.704554 31.4267C0.634057 31.4003 0.589996 31.1805 0.589996 30.776C0.589996 30.0462 0.545935 30.0813 1.95588 29.8175C3.03977 29.6153 3.42751 29.4131 3.90336 28.7887C4.82864 27.5753 5.03132 25.2363 5.03132 15.6166C5.03132 6.58609 4.85508 4.67798 3.90336 3.28866C3.48038 2.67315 2.75778 2.33021 1.55933 2.18952L0.642869 2.06642L0.616433 1.34538L0.589996 0.624346L0.880797 0.571587C1.03942 0.545208 6.64394 0.527622 13.3324 0.545208L25.4931 0.571587L25.546 0.923312C25.5813 1.11676 25.6253 3.10401 25.6606 5.32867L25.7222 9.3823L25.0878 9.58455C24.1449 9.87472 24.1537 9.87472 23.7219 8.7492C22.6821 5.99695 21.4836 4.41419 19.8445 3.60522C18.7166 3.05125 18.1967 2.9897 15.0067 2.9897H12.2308L12.1868 3.45573C12.0987 4.31746 11.9577 9.89231 11.9577 12.5127V15.133L12.7772 15.1242C13.2266 15.1242 14.1078 15.089 14.7423 15.0539C15.694 15.0011 15.976 14.9484 16.3726 14.7637C17.3507 14.3153 18.0116 13.3216 18.417 11.7037L18.6285 10.8683L19.3511 10.842L20.0737 10.8156V16.0915V21.3761L19.3511 21.3498L18.6285 21.3234L18.4258 20.488C18.038 18.9229 17.3066 17.7973 16.3902 17.3928C15.9672 17.2082 14.9274 17.1027 12.9094 17.0411L11.9577 17.0147V18.9932C11.9577 21.1563 12.081 24.0844 12.2308 25.6672C12.4423 27.8831 13.0063 29.1053 14.0285 29.545C14.2224 29.6329 14.8392 29.7648 15.3944 29.8527C15.9496 29.9319 16.4783 30.0374 16.5664 30.0813C16.7779 30.1956 16.7955 31.3388 16.584 31.4179C16.4166 31.4882 0.863173 31.4882 0.704554 31.4267ZM44.1484 31.4091C44.0691 31.3563 44.0427 31.1541 44.0603 30.732L44.0868 30.1253L44.3952 30.0637C44.5626 30.0286 44.9327 29.9582 45.2059 29.9055C46.0607 29.7472 46.5453 29.2812 46.8273 28.3755C47.0565 27.6368 47.1534 25.2803 47.1534 20.5408C47.1622 14.7461 47.0388 13.3832 46.4484 12.6006C46.1312 12.1785 45.9021 12.0642 45.1266 11.9147C44.7477 11.8444 44.3423 11.7652 44.2366 11.7389C44.0603 11.7037 44.0339 11.6421 44.0339 11.2113C44.0339 10.7892 44.0603 10.7189 44.2366 10.6485C44.5009 10.543 53.2338 8.80196 53.5069 8.80196H53.7272L53.6832 10.1033C53.6567 10.8156 53.6215 11.8532 53.6039 12.4071L53.5598 13.4184L53.8771 12.8468C54.8905 11.0266 56.0272 9.89231 57.5341 9.20644C58.3624 8.82834 58.9176 8.71403 59.9398 8.71403C61.1559 8.71403 62.372 9.10972 62.372 9.50541C62.372 9.7692 60.2306 15.4144 60.1161 15.4584C60.0544 15.4847 59.6402 15.3177 59.1908 15.1066C58.2479 14.6582 57.3579 14.4296 56.5031 14.4384C55.428 14.4384 54.2384 14.834 53.7625 15.344C53.5598 15.5639 53.5598 15.5727 53.5069 18.7997C53.4541 22.0004 53.5598 25.9046 53.7449 27.4698C53.8947 28.8063 54.256 29.4658 54.9874 29.7736C55.2341 29.8791 56.7851 30.0901 57.2874 30.0901C57.3226 30.0901 57.349 30.3979 57.3314 30.776L57.305 31.4619L50.784 31.4794C47.1974 31.4707 44.2101 31.4443 44.1484 31.4091Z" fill="#444444"/>
</svg>
