<svg width="26" height="25" viewBox="0 0 26 25" fill="none" xmlns="http://www.w3.org/2000/svg">
<path fill-rule="evenodd" clip-rule="evenodd" d="M0.5 12.8171C0.5 18.479 4.08129 23.2833 9.04845 24.978C9.67385 25.0961 9.90176 24.7003 9.90176 24.3604C9.90176 24.0559 9.89102 23.2502 9.88488 22.1809C6.40795 22.9552 5.67435 20.4625 5.67435 20.4625C5.10573 18.9818 4.28618 18.5876 4.28618 18.5876C3.15125 17.7921 4.37213 17.8086 4.37213 17.8086C5.62677 17.8991 6.2867 19.1297 6.2867 19.1297C7.40245 21.0881 9.21267 20.5223 9.92478 20.1942C10.0384 19.3657 10.3614 18.8016 10.7182 18.4806C7.94268 18.1572 5.02439 17.058 5.02439 12.1468C5.02439 10.747 5.51166 9.603 6.31126 8.70683C6.18311 8.38266 5.75415 7.07971 6.43404 5.31568C6.43404 5.31568 7.48379 4.97027 9.87107 6.62887C10.8686 6.34483 11.9376 6.20241 13.0004 6.19769C14.0624 6.20241 15.1314 6.34483 16.1305 6.62887C18.5162 4.97027 19.5644 5.31568 19.5644 5.31568C20.2458 7.07971 19.8169 8.38266 19.6887 8.70683C20.4899 9.603 20.9733 10.747 20.9733 12.1468C20.9733 17.0698 18.0512 18.1533 15.2664 18.4711C15.7153 18.8669 16.1144 19.649 16.1144 20.8441C16.1144 22.5578 16.0998 23.9402 16.0998 24.3604C16.0998 24.7034 16.3246 25.1016 16.9592 24.9765C21.9218 23.2785 25.5 18.4782 25.5 12.8171C25.5 5.7382 19.9028 0 12.9988 0C6.09716 0 0.5 5.7382 0.5 12.8171Z" fill="white"/>
</svg>
