<svg width="31" height="25" viewBox="0 0 31 25" fill="none" xmlns="http://www.w3.org/2000/svg">
<path d="M27.4287 6.22369C27.447 6.49492 27.447 6.76615 27.447 7.03988C27.447 15.3806 21.2556 25 9.93449 25V24.995C6.59019 25 3.31535 24.0176 0.5 22.1652C0.986288 22.2252 1.47501 22.2552 1.96496 22.2564C4.73644 22.2589 7.4287 21.3052 9.60907 19.5491C6.97531 19.4978 4.66575 17.7367 3.85893 15.1656C4.78153 15.3481 5.73217 15.3106 6.63772 15.0569C3.7663 14.4619 1.70049 11.8746 1.70049 8.86977C1.70049 8.84227 1.70049 8.81602 1.70049 8.78977C2.55606 9.27849 3.51401 9.54973 4.4939 9.57972C1.78946 7.72609 0.955819 4.03632 2.58897 1.15151C5.71389 5.09501 10.3245 7.49236 15.2739 7.74609C14.7779 5.55373 15.4555 3.25637 17.0545 1.71522C19.5335 -0.674629 23.4323 -0.552137 25.7626 1.98895C27.1411 1.71022 28.4622 1.1915 29.6712 0.456549C29.2117 1.91771 28.2501 3.15888 26.9656 3.94758C28.1855 3.80009 29.3775 3.46511 30.5 2.95389C29.6737 4.22381 28.6328 5.32999 27.4287 6.22369Z" fill="white"/>
</svg>
