<svg width="182" height="32" viewBox="0 0 182 32" fill="none" xmlns="http://www.w3.org/2000/svg">
<path d="M16.9378 32C25.7735 32 32.9362 24.8366 32.9362 16C32.9362 7.16344 25.7735 0 16.9378 0C8.10217 0 0.939453 7.16344 0.939453 16C0.939453 24.8366 8.10217 32 16.9378 32Z" fill="#444444"/>
<path d="M41.7363 18.4529V7.08008H46.809V16.9477C46.809 18.8989 47.032 20.7944 49.5961 20.7944C52.1603 20.7944 52.3833 18.8989 52.3833 16.9477V7.08008H57.456V18.3972C57.456 22.8013 54.6688 25.1985 49.5961 25.1985C44.412 25.2543 41.7363 22.8013 41.7363 18.4529Z" fill="#444444"/>
<path d="M58.7939 22.6342L61.2467 19.2335C62.1386 20.3485 63.6994 21.2962 65.4274 21.2962C66.7653 21.2962 67.5457 20.7387 67.5457 19.6795C67.5457 18.453 66.4308 18.0628 64.4798 17.5053C61.9156 16.7248 59.6301 15.3868 59.6301 12.3206C59.6301 8.97565 62.4173 6.68994 66.3193 6.68994C69.0507 6.68994 71.0575 7.52618 72.3953 8.75266L70.1099 12.1534C69.3852 11.3171 68.1588 10.5924 66.598 10.5924C65.2602 10.5924 64.7027 11.1499 64.7027 11.8189C64.7027 12.9338 66.0406 13.2126 67.4899 13.7143C70.3886 14.6063 72.6183 15.9443 72.6183 19.2335C72.6183 22.6342 70.1656 25.1986 65.7061 25.1986C62.4173 25.2544 59.9088 23.8607 58.7939 22.6342Z" fill="#444444"/>
<path d="M79.4196 7.08008H84.9939L91.6274 24.864H86.3318L85.4956 22.2996H78.8064L77.9703 24.864H72.7861C72.8419 24.864 79.4196 7.08008 79.4196 7.08008ZM84.2135 18.2857L82.82 13.993C82.5412 13.1567 82.3183 12.0975 82.2068 11.317H82.0396C81.9281 12.0975 81.7051 13.1567 81.4264 13.993L80.0328 18.2857H84.2135Z" fill="#444444"/>
<path d="M99.8451 11.2055H95.4414V7.08008H109.322V11.2055H104.918V24.864H99.8451V11.2055Z" fill="#444444"/>
<path d="M111.378 16.0001C111.378 11.5959 114.5 6.74573 121.133 6.74573C127.766 6.74573 130.888 11.6517 130.888 16.0001C130.888 20.3485 127.766 25.1987 121.133 25.1987C114.5 25.2544 111.378 20.4043 111.378 16.0001ZM125.704 16.0001C125.704 12.8224 123.641 11.1499 121.133 11.1499C118.68 11.1499 116.618 12.8224 116.618 16.0001C116.618 19.1778 118.68 20.7945 121.133 20.7945C123.586 20.7945 125.704 19.1778 125.704 16.0001Z" fill="#444444"/>
<path d="M132.728 7.08008H139.305C145.604 7.08008 149.172 10.425 149.172 15.9999C149.172 21.4634 145.493 24.9198 139.305 24.9198H132.728V7.08008ZM137.856 20.7944H138.971C142.26 20.7944 143.988 19.2334 143.988 15.9999C143.988 12.7665 142.26 11.2055 138.971 11.2055H137.856V20.7944Z" fill="#444444"/>
<path d="M155.081 7.08008H160.655L167.289 24.864H161.993L161.157 22.2996H154.468L153.631 24.864H148.447C148.503 24.864 155.081 7.08008 155.081 7.08008ZM159.875 18.2857L158.481 13.993C158.202 13.1567 157.979 12.0975 157.868 11.317H157.701C157.589 12.0975 157.366 13.1567 157.087 13.993L155.694 18.2857H159.875Z" fill="#444444"/>
<path d="M169.741 18.5644L163.107 7.13586H168.682L171.079 11.54C171.58 12.4878 172.305 13.8815 172.472 14.8292H172.584C172.751 13.8815 173.42 12.4878 173.977 11.54L176.374 7.13586H181.782L175.148 18.5644V24.9198H169.797V18.5644H169.741Z" fill="#444444"/>
</svg>
