<svg width="61" height="32" viewBox="0 0 61 32" fill="none" xmlns="http://www.w3.org/2000/svg">
<path d="M58.7046 3.18015C58.7046 1.89821 59.0373 1.4709 59.9404 1.2335L60.9385 0.948626V0.141479H51.4329V0.948626L52.5736 1.2335C53.4766 1.4709 53.9994 1.80325 53.9994 3.13267V25.2105C53.9994 28.2966 53.7143 30.7656 51.4329 30.7656C49.9596 30.7656 48.8664 29.6261 48.914 28.7714C49.0566 27.3471 51.4329 27.442 51.623 25.163C51.7656 23.5012 50.72 22.8365 49.7219 22.6941C48.2961 22.5042 46.5376 23.6912 46.4901 26.1126C46.4425 29.1987 48.4862 32 51.9082 32C55.7104 32 58.6571 29.4361 58.6571 24.4983L58.7046 3.18015Z" fill="#444444"/>
<path d="M44.589 23.5497C44.589 14.1488 34.2755 11.6799 34.2755 4.84288C34.2755 3.37102 34.8458 1.18698 37.1272 1.18698C40.4541 1.18698 41.6898 5.46011 42.2126 10.6353H43.0681V0.189917H42.4978C42.2602 1.18698 41.8324 1.66177 41.2621 1.66177C40.2165 1.66177 39.6461 0 37.1272 0C33.2299 0 30.5684 3.27607 30.5684 7.50171C30.5684 15.2408 40.8819 18.5169 40.8819 25.6862C40.8819 28.9623 39.361 30.7665 37.3173 30.7665C34.228 30.7665 32.2318 27.1581 31.6615 21.3182H30.806V31.7636H31.3763C31.8516 30.2442 32.4219 30.1018 32.9447 30.1018C33.8002 30.1018 34.7508 31.9535 37.4123 31.9535C41.4522 31.9535 44.589 28.3926 44.589 23.5497Z" fill="#444444"/>
<path d="M9.32385 31.8576H11.225L15.5024 9.30496H14.837L19.5423 31.8576H21.2057L26.814 5.22175C27.4319 2.42048 27.717 1.4709 28.8577 1.18602L29.7132 0.948626V0.141479H23.2019V0.948626L24.1525 1.13854C25.5308 1.42342 25.8635 2.23056 25.1981 5.64907L21.586 23.5012H22.1563L18.4967 4.69948C18.1165 2.89527 17.8788 1.42342 19.3997 1.18602L20.3978 0.996105V0.141479H11.5576V0.948626L12.1755 1.09106C13.0785 1.32846 13.2211 1.85073 13.6013 3.60746L15.0272 10.4445L14.742 6.31377L11.5576 23.0264H11.9379L8.23071 4.652C7.80296 2.75284 7.66038 1.32846 9.13374 1.09106L9.84665 0.948626V0.141479H0.816406V0.948626L1.6719 1.18602C2.47987 1.42342 2.95515 1.85073 3.52548 4.36713L9.32385 31.8576Z" fill="#444444"/>
</svg>
